<?xml version="1.0" encoding="UTF-8" standalone="no"?>
<!DOCTYPE svg PUBLIC "-//W3C//DTD SVG 1.1//EN"
 "http://www.w3.org/Graphics/SVG/1.1/DTD/svg11.dtd">
<!-- Generated by graphviz version 14.1.1 (20251213.1925)
 -->
<!-- Title: InheritanceTree Pages: 1 -->
<svg width="553pt" height="1941pt"
 viewBox="0.00 0.00 553.00 1941.00" xmlns="http://www.w3.org/2000/svg" xmlns:xlink="http://www.w3.org/1999/xlink">
<g id="graph0" class="graph" transform="scale(1 1) rotate(0) translate(4 1936.5)">
<title>InheritanceTree</title>
<polygon fill="white" stroke="none" points="-4,4 -4,-1936.5 549,-1936.5 549,4 -4,4"/>
<text xml:space="preserve" text-anchor="middle" x="272.5" y="-7.2" font-family="Times New Roman,serif" font-size="14.00">simple_kb &#45; Inheritance Hierarchy</text>
<!-- KB_AI_CONFIG -->
<g id="node1" class="node">
<title>KB_AI_CONFIG</title>
<path fill="none" stroke="black" d="M132.62,-276.5C132.62,-276.5 43.88,-276.5 43.88,-276.5 37.88,-276.5 31.88,-270.5 31.88,-264.5 31.88,-264.5 31.88,-252.5 31.88,-252.5 31.88,-246.5 37.88,-240.5 43.88,-240.5 43.88,-240.5 132.62,-240.5 132.62,-240.5 138.62,-240.5 144.62,-246.5 144.62,-252.5 144.62,-252.5 144.62,-264.5 144.62,-264.5 144.62,-270.5 138.62,-276.5 132.62,-276.5"/>
<text xml:space="preserve" text-anchor="middle" x="88.25" y="-253.45" font-family="Times New Roman,serif" font-size="14.00">KB_AI_CONFIG</text>
</g>
<!-- SHARED_EXECUTION_ENVIRONMENT -->
<g id="node2" class="node">
<title>SHARED_EXECUTION_ENVIRONMENT</title>
<path fill="none" stroke="black" d="M533,-168.5C533,-168.5 296.5,-168.5 296.5,-168.5 290.5,-168.5 284.5,-162.5 284.5,-156.5 284.5,-156.5 284.5,-144.5 284.5,-144.5 284.5,-138.5 290.5,-132.5 296.5,-132.5 296.5,-132.5 533,-132.5 533,-132.5 539,-132.5 545,-138.5 545,-144.5 545,-144.5 545,-156.5 545,-156.5 545,-162.5 539,-168.5 533,-168.5"/>
<text xml:space="preserve" text-anchor="middle" x="414.75" y="-145.45" font-family="Times New Roman,serif" font-size="14.00">SHARED_EXECUTION_ENVIRONMENT</text>
</g>
<!-- KB_AI_CONFIG&#45;&gt;SHARED_EXECUTION_ENVIRONMENT -->
<g id="edge1" class="edge">
<title>KB_AI_CONFIG&#45;&gt;SHARED_EXECUTION_ENVIRONMENT</title>
<path fill="none" stroke="black" d="M145.09,-258.5C218.23,-258.5 336,-258.5 336,-258.5 336,-258.5 336,-180.33 336,-180.33"/>
<polygon fill="none" stroke="black" points="339.5,-180.33 336,-170.33 332.5,-180.33 339.5,-180.33"/>
</g>
<!-- KB_AI_ROUTER -->
<g id="node3" class="node">
<title>KB_AI_ROUTER</title>
<path fill="none" stroke="black" d="M134.5,-348.5C134.5,-348.5 42,-348.5 42,-348.5 36,-348.5 30,-342.5 30,-336.5 30,-336.5 30,-324.5 30,-324.5 30,-318.5 36,-312.5 42,-312.5 42,-312.5 134.5,-312.5 134.5,-312.5 140.5,-312.5 146.5,-318.5 146.5,-324.5 146.5,-324.5 146.5,-336.5 146.5,-336.5 146.5,-342.5 140.5,-348.5 134.5,-348.5"/>
<text xml:space="preserve" text-anchor="middle" x="88.25" y="-325.45" font-family="Times New Roman,serif" font-size="14.00">KB_AI_ROUTER</text>
</g>
<!-- KB_QUERY_RESULT -->
<g id="node4" class="node">
<title>KB_QUERY_RESULT</title>
<path fill="none" stroke="black" d="M148.38,-420.5C148.38,-420.5 28.12,-420.5 28.12,-420.5 22.12,-420.5 16.12,-414.5 16.12,-408.5 16.12,-408.5 16.12,-396.5 16.12,-396.5 16.12,-390.5 22.12,-384.5 28.12,-384.5 28.12,-384.5 148.38,-384.5 148.38,-384.5 154.38,-384.5 160.38,-390.5 160.38,-396.5 160.38,-396.5 160.38,-408.5 160.38,-408.5 160.38,-414.5 154.38,-420.5 148.38,-420.5"/>
<text xml:space="preserve" text-anchor="middle" x="88.25" y="-397.45" font-family="Times New Roman,serif" font-size="14.00">KB_QUERY_RESULT</text>
</g>
<!-- KB_FAQ -->
<g id="node5" class="node">
<title>KB_FAQ</title>
<path fill="none" stroke="black" d="M110.12,-492.5C110.12,-492.5 66.38,-492.5 66.38,-492.5 60.38,-492.5 54.38,-486.5 54.38,-480.5 54.38,-480.5 54.38,-468.5 54.38,-468.5 54.38,-462.5 60.38,-456.5 66.38,-456.5 66.38,-456.5 110.12,-456.5 110.12,-456.5 116.12,-456.5 122.12,-462.5 122.12,-468.5 122.12,-468.5 122.12,-480.5 122.12,-480.5 122.12,-486.5 116.12,-492.5 110.12,-492.5"/>
<text xml:space="preserve" text-anchor="middle" x="88.25" y="-469.45" font-family="Times New Roman,serif" font-size="14.00">KB_FAQ</text>
</g>
<!-- KB_FAQ_STORE -->
<g id="node6" class="node">
<title>KB_FAQ_STORE</title>
<path fill="none" stroke="black" d="M134.88,-564.5C134.88,-564.5 41.62,-564.5 41.62,-564.5 35.62,-564.5 29.62,-558.5 29.62,-552.5 29.62,-552.5 29.62,-540.5 29.62,-540.5 29.62,-534.5 35.62,-528.5 41.62,-528.5 41.62,-528.5 134.88,-528.5 134.88,-528.5 140.88,-528.5 146.88,-534.5 146.88,-540.5 146.88,-540.5 146.88,-552.5 146.88,-552.5 146.88,-558.5 140.88,-564.5 134.88,-564.5"/>
<text xml:space="preserve" text-anchor="middle" x="88.25" y="-541.45" font-family="Times New Roman,serif" font-size="14.00">KB_FAQ_STORE</text>
</g>
<!-- KB_TAG_VOCABULARY -->
<g id="node7" class="node">
<title>KB_TAG_VOCABULARY</title>
<path fill="none" stroke="black" d="M160.38,-636.5C160.38,-636.5 16.12,-636.5 16.12,-636.5 10.12,-636.5 4.12,-630.5 4.12,-624.5 4.12,-624.5 4.12,-612.5 4.12,-612.5 4.12,-606.5 10.12,-600.5 16.12,-600.5 16.12,-600.5 160.38,-600.5 160.38,-600.5 166.38,-600.5 172.38,-606.5 172.38,-612.5 172.38,-612.5 172.38,-624.5 172.38,-624.5 172.38,-630.5 166.38,-636.5 160.38,-636.5"/>
<text xml:space="preserve" text-anchor="middle" x="88.25" y="-613.45" font-family="Times New Roman,serif" font-size="14.00">KB_TAG_VOCABULARY</text>
</g>
<!-- KB_MBOX_INGESTER -->
<g id="node8" class="node">
<title>KB_MBOX_INGESTER</title>
<path fill="none" stroke="black" d="M153.62,-708.5C153.62,-708.5 22.88,-708.5 22.88,-708.5 16.88,-708.5 10.88,-702.5 10.88,-696.5 10.88,-696.5 10.88,-684.5 10.88,-684.5 10.88,-678.5 16.88,-672.5 22.88,-672.5 22.88,-672.5 153.62,-672.5 153.62,-672.5 159.62,-672.5 165.62,-678.5 165.62,-684.5 165.62,-684.5 165.62,-696.5 165.62,-696.5 165.62,-702.5 159.62,-708.5 153.62,-708.5"/>
<text xml:space="preserve" text-anchor="middle" x="88.25" y="-685.45" font-family="Times New Roman,serif" font-size="14.00">KB_MBOX_INGESTER</text>
</g>
<!-- KB_MBOX_MESSAGE -->
<g id="node9" class="node">
<title>KB_MBOX_MESSAGE</title>
<path fill="none" stroke="black" d="M152.88,-780.5C152.88,-780.5 23.62,-780.5 23.62,-780.5 17.62,-780.5 11.62,-774.5 11.62,-768.5 11.62,-768.5 11.62,-756.5 11.62,-756.5 11.62,-750.5 17.62,-744.5 23.62,-744.5 23.62,-744.5 152.88,-744.5 152.88,-744.5 158.88,-744.5 164.88,-750.5 164.88,-756.5 164.88,-756.5 164.88,-768.5 164.88,-768.5 164.88,-774.5 158.88,-780.5 152.88,-780.5"/>
<text xml:space="preserve" text-anchor="middle" x="88.25" y="-757.45" font-family="Times New Roman,serif" font-size="14.00">KB_MBOX_MESSAGE</text>
</g>
<!-- KB_MBOX_PARSER -->
<g id="node10" class="node">
<title>KB_MBOX_PARSER</title>
<path fill="none" stroke="black" d="M146.12,-852.5C146.12,-852.5 30.38,-852.5 30.38,-852.5 24.38,-852.5 18.38,-846.5 18.38,-840.5 18.38,-840.5 18.38,-828.5 18.38,-828.5 18.38,-822.5 24.38,-816.5 30.38,-816.5 30.38,-816.5 146.12,-816.5 146.12,-816.5 152.12,-816.5 158.12,-822.5 158.12,-828.5 158.12,-828.5 158.12,-840.5 158.12,-840.5 158.12,-846.5 152.12,-852.5 146.12,-852.5"/>
<text xml:space="preserve" text-anchor="middle" x="88.25" y="-829.45" font-family="Times New Roman,serif" font-size="14.00">KB_MBOX_PARSER</text>
</g>
<!-- KB_CLASS_INFO -->
<g id="node11" class="node">
<title>KB_CLASS_INFO</title>
<path fill="none" stroke="black" d="M137.12,-924.5C137.12,-924.5 39.38,-924.5 39.38,-924.5 33.38,-924.5 27.37,-918.5 27.37,-912.5 27.37,-912.5 27.37,-900.5 27.37,-900.5 27.37,-894.5 33.37,-888.5 39.37,-888.5 39.37,-888.5 137.12,-888.5 137.12,-888.5 143.12,-888.5 149.12,-894.5 149.12,-900.5 149.12,-900.5 149.12,-912.5 149.12,-912.5 149.12,-918.5 143.12,-924.5 137.12,-924.5"/>
<text xml:space="preserve" text-anchor="middle" x="88.25" y="-901.45" font-family="Times New Roman,serif" font-size="14.00">KB_CLASS_INFO</text>
</g>
<!-- KB_CLI_APP -->
<g id="node12" class="node">
<title>KB_CLI_APP</title>
<path fill="none" stroke="black" d="M123.62,-204.5C123.62,-204.5 52.88,-204.5 52.88,-204.5 46.88,-204.5 40.88,-198.5 40.88,-192.5 40.88,-192.5 40.88,-180.5 40.88,-180.5 40.88,-174.5 46.88,-168.5 52.88,-168.5 52.88,-168.5 123.62,-168.5 123.62,-168.5 129.62,-168.5 135.62,-174.5 135.62,-180.5 135.62,-180.5 135.62,-192.5 135.62,-192.5 135.62,-198.5 129.62,-204.5 123.62,-204.5"/>
<text xml:space="preserve" text-anchor="middle" x="88.25" y="-181.45" font-family="Times New Roman,serif" font-size="14.00">KB_CLI_APP</text>
</g>
<!-- KB_CLI_APP&#45;&gt;SHARED_EXECUTION_ENVIRONMENT -->
<g id="edge2" class="edge">
<title>KB_CLI_APP&#45;&gt;SHARED_EXECUTION_ENVIRONMENT</title>
<path fill="none" stroke="black" d="M104,-168.01C104,-161.84 104,-156.5 104,-156.5 104,-156.5 272.8,-156.5 272.8,-156.5"/>
<polygon fill="none" stroke="black" points="272.8,-160 282.8,-156.5 272.8,-153 272.8,-160"/>
</g>
<!-- KB_DATABASE -->
<g id="node13" class="node">
<title>KB_DATABASE</title>
<path fill="none" stroke="black" d="M131.88,-996.5C131.88,-996.5 44.62,-996.5 44.62,-996.5 38.62,-996.5 32.62,-990.5 32.62,-984.5 32.62,-984.5 32.62,-972.5 32.62,-972.5 32.62,-966.5 38.62,-960.5 44.62,-960.5 44.62,-960.5 131.88,-960.5 131.88,-960.5 137.88,-960.5 143.88,-966.5 143.88,-972.5 143.88,-972.5 143.88,-984.5 143.88,-984.5 143.88,-990.5 137.88,-996.5 131.88,-996.5"/>
<text xml:space="preserve" text-anchor="middle" x="88.25" y="-973.45" font-family="Times New Roman,serif" font-size="14.00">KB_DATABASE</text>
</g>
<!-- ANY -->
<g id="node14" class="node">
<title>ANY</title>
<path fill="none" stroke="black" d="M429.75,-996.5C429.75,-996.5 399.75,-996.5 399.75,-996.5 393.75,-996.5 387.75,-990.5 387.75,-984.5 387.75,-984.5 387.75,-972.5 387.75,-972.5 387.75,-966.5 393.75,-960.5 399.75,-960.5 399.75,-960.5 429.75,-960.5 429.75,-960.5 435.75,-960.5 441.75,-966.5 441.75,-972.5 441.75,-972.5 441.75,-984.5 441.75,-984.5 441.75,-990.5 435.75,-996.5 429.75,-996.5"/>
<text xml:space="preserve" text-anchor="middle" x="414.75" y="-973.45" font-family="Times New Roman,serif" font-size="14.00">ANY</text>
</g>
<!-- KB_DATABASE&#45;&gt;ANY -->
<g id="edge3" class="edge">
<title>KB_DATABASE&#45;&gt;ANY</title>
<path fill="none" stroke="black" d="M144.01,-978.5C144.01,-978.5 376.13,-978.5 376.13,-978.5"/>
<polygon fill="none" stroke="black" points="376.13,-982 386.13,-978.5 376.13,-975 376.13,-982"/>
</g>
<!-- KB_ERROR_INFO -->
<g id="node15" class="node">
<title>KB_ERROR_INFO</title>
<path fill="none" stroke="black" d="M138.62,-1068.5C138.62,-1068.5 37.88,-1068.5 37.88,-1068.5 31.88,-1068.5 25.88,-1062.5 25.88,-1056.5 25.88,-1056.5 25.88,-1044.5 25.88,-1044.5 25.88,-1038.5 31.88,-1032.5 37.88,-1032.5 37.88,-1032.5 138.62,-1032.5 138.62,-1032.5 144.62,-1032.5 150.62,-1038.5 150.62,-1044.5 150.62,-1044.5 150.62,-1056.5 150.62,-1056.5 150.62,-1062.5 144.62,-1068.5 138.62,-1068.5"/>
<text xml:space="preserve" text-anchor="middle" x="88.25" y="-1045.45" font-family="Times New Roman,serif" font-size="14.00">KB_ERROR_INFO</text>
</g>
<!-- KB_ERROR_SEEDER -->
<g id="node16" class="node">
<title>KB_ERROR_SEEDER</title>
<path fill="none" stroke="black" d="M148.38,-1140.5C148.38,-1140.5 28.12,-1140.5 28.12,-1140.5 22.12,-1140.5 16.12,-1134.5 16.12,-1128.5 16.12,-1128.5 16.12,-1116.5 16.12,-1116.5 16.12,-1110.5 22.12,-1104.5 28.12,-1104.5 28.12,-1104.5 148.38,-1104.5 148.38,-1104.5 154.38,-1104.5 160.38,-1110.5 160.38,-1116.5 160.38,-1116.5 160.38,-1128.5 160.38,-1128.5 160.38,-1134.5 154.38,-1140.5 148.38,-1140.5"/>
<text xml:space="preserve" text-anchor="middle" x="88.25" y="-1117.45" font-family="Times New Roman,serif" font-size="14.00">KB_ERROR_SEEDER</text>
</g>
<!-- KB_EXAMPLE -->
<g id="node17" class="node">
<title>KB_EXAMPLE</title>
<path fill="none" stroke="black" d="M129.25,-1212.5C129.25,-1212.5 47.25,-1212.5 47.25,-1212.5 41.25,-1212.5 35.25,-1206.5 35.25,-1200.5 35.25,-1200.5 35.25,-1188.5 35.25,-1188.5 35.25,-1182.5 41.25,-1176.5 47.25,-1176.5 47.25,-1176.5 129.25,-1176.5 129.25,-1176.5 135.25,-1176.5 141.25,-1182.5 141.25,-1188.5 141.25,-1188.5 141.25,-1200.5 141.25,-1200.5 141.25,-1206.5 135.25,-1212.5 129.25,-1212.5"/>
<text xml:space="preserve" text-anchor="middle" x="88.25" y="-1189.45" font-family="Times New Roman,serif" font-size="14.00">KB_EXAMPLE</text>
</g>
<!-- KB_FEATURE_INFO -->
<g id="node18" class="node">
<title>KB_FEATURE_INFO</title>
<path fill="none" stroke="black" d="M145.75,-1284.5C145.75,-1284.5 30.75,-1284.5 30.75,-1284.5 24.75,-1284.5 18.75,-1278.5 18.75,-1272.5 18.75,-1272.5 18.75,-1260.5 18.75,-1260.5 18.75,-1254.5 24.75,-1248.5 30.75,-1248.5 30.75,-1248.5 145.75,-1248.5 145.75,-1248.5 151.75,-1248.5 157.75,-1254.5 157.75,-1260.5 157.75,-1260.5 157.75,-1272.5 157.75,-1272.5 157.75,-1278.5 151.75,-1284.5 145.75,-1284.5"/>
<text xml:space="preserve" text-anchor="middle" x="88.25" y="-1261.45" font-family="Times New Roman,serif" font-size="14.00">KB_FEATURE_INFO</text>
</g>
<!-- KB_INGESTER -->
<g id="node19" class="node">
<title>KB_INGESTER</title>
<path fill="none" stroke="black" d="M129.62,-132.5C129.62,-132.5 46.88,-132.5 46.88,-132.5 40.88,-132.5 34.88,-126.5 34.88,-120.5 34.88,-120.5 34.88,-108.5 34.88,-108.5 34.88,-102.5 40.88,-96.5 46.88,-96.5 46.88,-96.5 129.62,-96.5 129.62,-96.5 135.62,-96.5 141.62,-102.5 141.62,-108.5 141.62,-108.5 141.62,-120.5 141.62,-120.5 141.62,-126.5 135.62,-132.5 129.62,-132.5"/>
<text xml:space="preserve" text-anchor="middle" x="88.25" y="-109.45" font-family="Times New Roman,serif" font-size="14.00">KB_INGESTER</text>
</g>
<!-- KB_INGESTER&#45;&gt;SHARED_EXECUTION_ENVIRONMENT -->
<g id="edge4" class="edge">
<title>KB_INGESTER&#45;&gt;SHARED_EXECUTION_ENVIRONMENT</title>
<path fill="none" stroke="black" d="M72,-132.99C72,-139.16 72,-144.5 72,-144.5 72,-144.5 272.68,-144.5 272.68,-144.5"/>
<polygon fill="none" stroke="black" points="272.68,-148 282.68,-144.5 272.68,-141 272.68,-148"/>
</g>
<!-- KB_LIBRARY_INFO -->
<g id="node20" class="node">
<title>KB_LIBRARY_INFO</title>
<path fill="none" stroke="black" d="M145.38,-1356.5C145.38,-1356.5 31.12,-1356.5 31.12,-1356.5 25.12,-1356.5 19.12,-1350.5 19.12,-1344.5 19.12,-1344.5 19.12,-1332.5 19.12,-1332.5 19.12,-1326.5 25.12,-1320.5 31.12,-1320.5 31.12,-1320.5 145.38,-1320.5 145.38,-1320.5 151.38,-1320.5 157.38,-1326.5 157.38,-1332.5 157.38,-1332.5 157.38,-1344.5 157.38,-1344.5 157.38,-1350.5 151.38,-1356.5 145.38,-1356.5"/>
<text xml:space="preserve" text-anchor="middle" x="88.25" y="-1333.45" font-family="Times New Roman,serif" font-size="14.00">KB_LIBRARY_INFO</text>
</g>
<!-- KB_PAGER -->
<g id="node21" class="node">
<title>KB_PAGER</title>
<path fill="none" stroke="black" d="M118.75,-1428.5C118.75,-1428.5 57.75,-1428.5 57.75,-1428.5 51.75,-1428.5 45.75,-1422.5 45.75,-1416.5 45.75,-1416.5 45.75,-1404.5 45.75,-1404.5 45.75,-1398.5 51.75,-1392.5 57.75,-1392.5 57.75,-1392.5 118.75,-1392.5 118.75,-1392.5 124.75,-1392.5 130.75,-1398.5 130.75,-1404.5 130.75,-1404.5 130.75,-1416.5 130.75,-1416.5 130.75,-1422.5 124.75,-1428.5 118.75,-1428.5"/>
<text xml:space="preserve" text-anchor="middle" x="88.25" y="-1405.45" font-family="Times New Roman,serif" font-size="14.00">KB_PAGER</text>
</g>
<!-- KB_PATTERN -->
<g id="node22" class="node">
<title>KB_PATTERN</title>
<path fill="none" stroke="black" d="M126.25,-1500.5C126.25,-1500.5 50.25,-1500.5 50.25,-1500.5 44.25,-1500.5 38.25,-1494.5 38.25,-1488.5 38.25,-1488.5 38.25,-1476.5 38.25,-1476.5 38.25,-1470.5 44.25,-1464.5 50.25,-1464.5 50.25,-1464.5 126.25,-1464.5 126.25,-1464.5 132.25,-1464.5 138.25,-1470.5 138.25,-1476.5 138.25,-1476.5 138.25,-1488.5 138.25,-1488.5 138.25,-1494.5 132.25,-1500.5 126.25,-1500.5"/>
<text xml:space="preserve" text-anchor="middle" x="88.25" y="-1477.45" font-family="Times New Roman,serif" font-size="14.00">KB_PATTERN</text>
</g>
<!-- KB_PATTERN_SEEDER -->
<g id="node23" class="node">
<title>KB_PATTERN_SEEDER</title>
<path fill="none" stroke="black" d="M155.12,-1572.5C155.12,-1572.5 21.38,-1572.5 21.38,-1572.5 15.38,-1572.5 9.38,-1566.5 9.38,-1560.5 9.38,-1560.5 9.38,-1548.5 9.38,-1548.5 9.38,-1542.5 15.38,-1536.5 21.38,-1536.5 21.38,-1536.5 155.12,-1536.5 155.12,-1536.5 161.12,-1536.5 167.12,-1542.5 167.12,-1548.5 167.12,-1548.5 167.12,-1560.5 167.12,-1560.5 167.12,-1566.5 161.12,-1572.5 155.12,-1572.5"/>
<text xml:space="preserve" text-anchor="middle" x="88.25" y="-1549.45" font-family="Times New Roman,serif" font-size="14.00">KB_PATTERN_SEEDER</text>
</g>
<!-- KB_QUICK -->
<g id="node24" class="node">
<title>KB_QUICK</title>
<path fill="none" stroke="black" d="M118.38,-1644.5C118.38,-1644.5 58.12,-1644.5 58.12,-1644.5 52.12,-1644.5 46.12,-1638.5 46.12,-1632.5 46.12,-1632.5 46.12,-1620.5 46.12,-1620.5 46.12,-1614.5 52.12,-1608.5 58.12,-1608.5 58.12,-1608.5 118.38,-1608.5 118.38,-1608.5 124.38,-1608.5 130.38,-1614.5 130.38,-1620.5 130.38,-1620.5 130.38,-1632.5 130.38,-1632.5 130.38,-1638.5 124.38,-1644.5 118.38,-1644.5"/>
<text xml:space="preserve" text-anchor="middle" x="88.25" y="-1621.45" font-family="Times New Roman,serif" font-size="14.00">KB_QUICK</text>
</g>
<!-- KB_RESULT -->
<g id="node25" class="node">
<title>KB_RESULT</title>
<path fill="none" stroke="black" d="M122.12,-1716.5C122.12,-1716.5 54.38,-1716.5 54.38,-1716.5 48.38,-1716.5 42.38,-1710.5 42.38,-1704.5 42.38,-1704.5 42.38,-1692.5 42.38,-1692.5 42.38,-1686.5 48.38,-1680.5 54.38,-1680.5 54.38,-1680.5 122.12,-1680.5 122.12,-1680.5 128.12,-1680.5 134.12,-1686.5 134.12,-1692.5 134.12,-1692.5 134.12,-1704.5 134.12,-1704.5 134.12,-1710.5 128.12,-1716.5 122.12,-1716.5"/>
<text xml:space="preserve" text-anchor="middle" x="88.25" y="-1693.45" font-family="Times New Roman,serif" font-size="14.00">KB_RESULT</text>
</g>
<!-- KB_ROSETTA_IMPORTER -->
<g id="node26" class="node">
<title>KB_ROSETTA_IMPORTER</title>
<path fill="none" stroke="black" d="M164.5,-1788.5C164.5,-1788.5 12,-1788.5 12,-1788.5 6,-1788.5 0,-1782.5 0,-1776.5 0,-1776.5 0,-1764.5 0,-1764.5 0,-1758.5 6,-1752.5 12,-1752.5 12,-1752.5 164.5,-1752.5 164.5,-1752.5 170.5,-1752.5 176.5,-1758.5 176.5,-1764.5 176.5,-1764.5 176.5,-1776.5 176.5,-1776.5 176.5,-1782.5 170.5,-1788.5 164.5,-1788.5"/>
<text xml:space="preserve" text-anchor="middle" x="88.25" y="-1765.45" font-family="Times New Roman,serif" font-size="14.00">KB_ROSETTA_IMPORTER</text>
</g>
<!-- SIMPLE_KB -->
<g id="node27" class="node">
<title>SIMPLE_KB</title>
<path fill="none" stroke="black" d="M121.38,-1860.5C121.38,-1860.5 55.12,-1860.5 55.12,-1860.5 49.12,-1860.5 43.12,-1854.5 43.12,-1848.5 43.12,-1848.5 43.12,-1836.5 43.12,-1836.5 43.12,-1830.5 49.12,-1824.5 55.12,-1824.5 55.12,-1824.5 121.38,-1824.5 121.38,-1824.5 127.38,-1824.5 133.38,-1830.5 133.38,-1836.5 133.38,-1836.5 133.38,-1848.5 133.38,-1848.5 133.38,-1854.5 127.38,-1860.5 121.38,-1860.5"/>
<text xml:space="preserve" text-anchor="middle" x="88.25" y="-1837.45" font-family="Times New Roman,serif" font-size="14.00">SIMPLE_KB</text>
</g>
<!-- LIB_TESTS -->
<g id="node28" class="node">
<title>LIB_TESTS</title>
<path fill="none" stroke="black" d="M118.38,-1932.5C118.38,-1932.5 58.12,-1932.5 58.12,-1932.5 52.12,-1932.5 46.12,-1926.5 46.12,-1920.5 46.12,-1920.5 46.12,-1908.5 46.12,-1908.5 46.12,-1902.5 52.12,-1896.5 58.12,-1896.5 58.12,-1896.5 118.38,-1896.5 118.38,-1896.5 124.38,-1896.5 130.38,-1902.5 130.38,-1908.5 130.38,-1908.5 130.38,-1920.5 130.38,-1920.5 130.38,-1926.5 124.38,-1932.5 118.38,-1932.5"/>
<text xml:space="preserve" text-anchor="middle" x="88.25" y="-1909.45" font-family="Times New Roman,serif" font-size="14.00">LIB_TESTS</text>
</g>
<!-- TEST_APP -->
<g id="node29" class="node">
<title>TEST_APP</title>
<path fill="none" stroke="black" d="M116.12,-60.5C116.12,-60.5 60.38,-60.5 60.38,-60.5 54.38,-60.5 48.38,-54.5 48.38,-48.5 48.38,-48.5 48.38,-36.5 48.38,-36.5 48.38,-30.5 54.38,-24.5 60.38,-24.5 60.38,-24.5 116.12,-24.5 116.12,-24.5 122.12,-24.5 128.12,-30.5 128.12,-36.5 128.12,-36.5 128.12,-48.5 128.12,-48.5 128.12,-54.5 122.12,-60.5 116.12,-60.5"/>
<text xml:space="preserve" text-anchor="middle" x="88.25" y="-37.45" font-family="Times New Roman,serif" font-size="14.00">TEST_APP</text>
</g>
<!-- TEST_APP&#45;&gt;SHARED_EXECUTION_ENVIRONMENT -->
<g id="edge5" class="edge">
<title>TEST_APP&#45;&gt;SHARED_EXECUTION_ENVIRONMENT</title>
<path fill="none" stroke="black" d="M128.32,-42.5C215.57,-42.5 415,-42.5 415,-42.5 415,-42.5 415,-120.67 415,-120.67"/>
<polygon fill="none" stroke="black" points="411.5,-120.67 415,-130.67 418.5,-120.67 411.5,-120.67"/>
</g>
</g>
</svg>
