<?xml version="1.0" encoding="UTF-8" standalone="no"?>
<!DOCTYPE svg PUBLIC "-//W3C//DTD SVG 1.1//EN"
 "http://www.w3.org/Graphics/SVG/1.1/DTD/svg11.dtd">
<!-- Generated by graphviz version 14.1.1 (20251213.1925)
 -->
<!-- Title: Dependencies Pages: 1 -->
<svg width="353pt" height="933pt"
 viewBox="0.00 0.00 353.00 933.00" xmlns="http://www.w3.org/2000/svg" xmlns:xlink="http://www.w3.org/1999/xlink">
<g id="graph0" class="graph" transform="scale(1 1) rotate(0) translate(4 928.5)">
<title>Dependencies</title>
<polygon fill="white" stroke="none" points="-4,4 -4,-928.5 348.75,-928.5 348.75,4 -4,4"/>
<text xml:space="preserve" text-anchor="middle" x="172.38" y="-7.2" font-family="Times New Roman,serif" font-size="14.00">simple_kb &#45; Dependencies</text>
<!-- simple_kb -->
<g id="node1" class="node">
<title>simple_kb</title>
<polygon fill="lightblue" stroke="black" points="73,-492.5 0,-492.5 0,-456.5 73,-456.5 73,-492.5"/>
<text xml:space="preserve" text-anchor="middle" x="36.5" y="-469.45" font-family="Times New Roman,serif" font-size="14.00">simple_kb</text>
</g>
<!-- simple_sql -->
<g id="node2" class="node">
<title>simple_sql</title>
<polygon fill="lightblue" stroke="black" points="318.5,-924.5 243.25,-924.5 243.25,-888.5 318.5,-888.5 318.5,-924.5"/>
<text xml:space="preserve" text-anchor="middle" x="280.88" y="-901.45" font-family="Times New Roman,serif" font-size="14.00">simple_sql</text>
</g>
<!-- simple_kb&#45;&gt;simple_sql -->
<g id="edge1" class="edge">
<title>simple_kb&#45;&gt;simple_sql</title>
<path fill="none" stroke="black" stroke-dasharray="5,2" d="M11.75,-492.79C11.75,-575.01 11.75,-906.5 11.75,-906.5 11.75,-906.5 231.37,-906.5 231.37,-906.5"/>
<polygon fill="black" stroke="black" points="231.37,-910 241.37,-906.5 231.37,-903 231.37,-910"/>
</g>
<!-- simple_json -->
<g id="node3" class="node">
<title>simple_json</title>
<polygon fill="lightblue" stroke="black" points="321.88,-852.5 239.88,-852.5 239.88,-816.5 321.88,-816.5 321.88,-852.5"/>
<text xml:space="preserve" text-anchor="middle" x="280.88" y="-829.45" font-family="Times New Roman,serif" font-size="14.00">simple_json</text>
</g>
<!-- simple_kb&#45;&gt;simple_json -->
<g id="edge2" class="edge">
<title>simple_kb&#45;&gt;simple_json</title>
<path fill="none" stroke="black" stroke-dasharray="5,2" d="M24.75,-492.85C24.75,-566.21 24.75,-834.5 24.75,-834.5 24.75,-834.5 227.93,-834.5 227.93,-834.5"/>
<polygon fill="black" stroke="black" points="227.93,-838 237.93,-834.5 227.93,-831 227.93,-838"/>
</g>
<!-- simple_file -->
<g id="node4" class="node">
<title>simple_file</title>
<polygon fill="lightblue" stroke="black" points="319.62,-780.5 242.12,-780.5 242.12,-744.5 319.62,-744.5 319.62,-780.5"/>
<text xml:space="preserve" text-anchor="middle" x="280.88" y="-757.45" font-family="Times New Roman,serif" font-size="14.00">simple_file</text>
</g>
<!-- simple_kb&#45;&gt;simple_file -->
<g id="edge3" class="edge">
<title>simple_kb&#45;&gt;simple_file</title>
<path fill="none" stroke="black" stroke-dasharray="5,2" d="M36.75,-492.95C36.75,-556.52 36.75,-762.5 36.75,-762.5 36.75,-762.5 230.14,-762.5 230.14,-762.5"/>
<polygon fill="black" stroke="black" points="230.14,-766 240.14,-762.5 230.14,-759 230.14,-766"/>
</g>
<!-- simple_cli -->
<g id="node5" class="node">
<title>simple_cli</title>
<polygon fill="lightblue" stroke="black" points="317.38,-708.5 244.38,-708.5 244.38,-672.5 317.38,-672.5 317.38,-708.5"/>
<text xml:space="preserve" text-anchor="middle" x="280.88" y="-685.45" font-family="Times New Roman,serif" font-size="14.00">simple_cli</text>
</g>
<!-- simple_kb&#45;&gt;simple_cli -->
<g id="edge4" class="edge">
<title>simple_kb&#45;&gt;simple_cli</title>
<path fill="none" stroke="black" stroke-dasharray="5,2" d="M48.75,-492.92C48.75,-545.15 48.75,-690.5 48.75,-690.5 48.75,-690.5 232.58,-690.5 232.58,-690.5"/>
<polygon fill="black" stroke="black" points="232.58,-694 242.58,-690.5 232.58,-687 232.58,-694"/>
</g>
<!-- simple_eiffel_parser -->
<g id="node6" class="node">
<title>simple_eiffel_parser</title>
<polygon fill="lightblue" stroke="black" points="344.75,-636.5 217,-636.5 217,-600.5 344.75,-600.5 344.75,-636.5"/>
<text xml:space="preserve" text-anchor="middle" x="280.88" y="-613.45" font-family="Times New Roman,serif" font-size="14.00">simple_eiffel_parser</text>
</g>
<!-- simple_kb&#45;&gt;simple_eiffel_parser -->
<g id="edge5" class="edge">
<title>simple_kb&#45;&gt;simple_eiffel_parser</title>
<path fill="none" stroke="black" stroke-dasharray="5,2" d="M73.3,-480.5C127.58,-480.5 222.75,-480.5 222.75,-480.5 222.75,-480.5 222.75,-588.66 222.75,-588.66"/>
<polygon fill="black" stroke="black" points="219.25,-588.66 222.75,-598.66 226.25,-588.66 219.25,-588.66"/>
</g>
<!-- simple_xml -->
<g id="node7" class="node">
<title>simple_xml</title>
<polygon fill="lightblue" stroke="black" points="321.5,-564.5 240.25,-564.5 240.25,-528.5 321.5,-528.5 321.5,-564.5"/>
<text xml:space="preserve" text-anchor="middle" x="280.88" y="-541.45" font-family="Times New Roman,serif" font-size="14.00">simple_xml</text>
</g>
<!-- simple_kb&#45;&gt;simple_xml -->
<g id="edge6" class="edge">
<title>simple_kb&#45;&gt;simple_xml</title>
<path fill="none" stroke="black" stroke-dasharray="5,2" d="M60.75,-492.67C60.75,-514 60.75,-546.5 60.75,-546.5 60.75,-546.5 228.47,-546.5 228.47,-546.5"/>
<polygon fill="black" stroke="black" points="228.47,-550 238.47,-546.5 228.47,-543 228.47,-550"/>
</g>
<!-- simple_logger -->
<g id="node8" class="node">
<title>simple_logger</title>
<polygon fill="lightblue" stroke="black" points="327.88,-492.5 233.88,-492.5 233.88,-456.5 327.88,-456.5 327.88,-492.5"/>
<text xml:space="preserve" text-anchor="middle" x="280.88" y="-469.45" font-family="Times New Roman,serif" font-size="14.00">simple_logger</text>
</g>
<!-- simple_kb&#45;&gt;simple_logger -->
<g id="edge7" class="edge">
<title>simple_kb&#45;&gt;simple_logger</title>
<path fill="none" stroke="black" stroke-dasharray="5,2" d="M73.35,-468.5C73.35,-468.5 222.14,-468.5 222.14,-468.5"/>
<polygon fill="black" stroke="black" points="222.14,-472 232.14,-468.5 222.14,-465 222.14,-472"/>
</g>
<!-- simple_process -->
<g id="node9" class="node">
<title>simple_process</title>
<polygon fill="lightblue" stroke="black" points="330.88,-420.5 230.88,-420.5 230.88,-384.5 330.88,-384.5 330.88,-420.5"/>
<text xml:space="preserve" text-anchor="middle" x="280.88" y="-397.45" font-family="Times New Roman,serif" font-size="14.00">simple_process</text>
</g>
<!-- simple_kb&#45;&gt;simple_process -->
<g id="edge8" class="edge">
<title>simple_kb&#45;&gt;simple_process</title>
<path fill="none" stroke="black" stroke-dasharray="5,2" d="M62.75,-456.33C62.75,-435 62.75,-402.5 62.75,-402.5 62.75,-402.5 219.05,-402.5 219.05,-402.5"/>
<polygon fill="black" stroke="black" points="219.05,-406 229.05,-402.5 219.05,-399 219.05,-406"/>
</g>
<!-- simple_ai_client -->
<g id="node10" class="node">
<title>simple_ai_client</title>
<polygon fill="lightblue" stroke="black" points="333.88,-348.5 227.88,-348.5 227.88,-312.5 333.88,-312.5 333.88,-348.5"/>
<text xml:space="preserve" text-anchor="middle" x="280.88" y="-325.45" font-family="Times New Roman,serif" font-size="14.00">simple_ai_client</text>
</g>
<!-- simple_kb&#45;&gt;simple_ai_client -->
<g id="edge9" class="edge">
<title>simple_kb&#45;&gt;simple_ai_client</title>
<path fill="none" stroke="black" stroke-dasharray="5,2" d="M51.75,-456.26C51.75,-417.51 51.75,-330.5 51.75,-330.5 51.75,-330.5 215.93,-330.5 215.93,-330.5"/>
<polygon fill="black" stroke="black" points="215.93,-334 225.93,-330.5 215.93,-327 215.93,-334"/>
</g>
<!-- simple_testing -->
<g id="node11" class="node">
<title>simple_testing</title>
<polygon fill="lightblue" stroke="black" points="328.62,-276.5 233.12,-276.5 233.12,-240.5 328.62,-240.5 328.62,-276.5"/>
<text xml:space="preserve" text-anchor="middle" x="280.88" y="-253.45" font-family="Times New Roman,serif" font-size="14.00">simple_testing</text>
</g>
<!-- simple_kb&#45;&gt;simple_testing -->
<g id="edge10" class="edge">
<title>simple_kb&#45;&gt;simple_testing</title>
<path fill="none" stroke="black" stroke-dasharray="5,2" d="M41.75,-456.08C41.75,-403.85 41.75,-258.5 41.75,-258.5 41.75,-258.5 221.26,-258.5 221.26,-258.5"/>
<polygon fill="black" stroke="black" points="221.26,-262 231.26,-258.5 221.26,-255 221.26,-262"/>
</g>
<!-- base -->
<g id="node12" class="node">
<title>base</title>
<polygon fill="lightgray" stroke="black" points="307.88,-204.5 253.88,-204.5 253.88,-168.5 307.88,-168.5 307.88,-204.5"/>
<text xml:space="preserve" text-anchor="middle" x="280.88" y="-181.45" font-family="Times New Roman,serif" font-size="14.00">base</text>
</g>
<!-- simple_kb&#45;&gt;base -->
<g id="edge11" class="edge">
<title>simple_kb&#45;&gt;base</title>
<path fill="none" stroke="black" stroke-dasharray="5,2" d="M31.75,-456.05C31.75,-392.48 31.75,-186.5 31.75,-186.5 31.75,-186.5 242.23,-186.5 242.23,-186.5"/>
<polygon fill="black" stroke="black" points="242.23,-190 252.23,-186.5 242.23,-183 242.23,-190"/>
</g>
<!-- time -->
<g id="node13" class="node">
<title>time</title>
<polygon fill="lightgray" stroke="black" points="307.88,-132.5 253.88,-132.5 253.88,-96.5 307.88,-96.5 307.88,-132.5"/>
<text xml:space="preserve" text-anchor="middle" x="280.88" y="-109.45" font-family="Times New Roman,serif" font-size="14.00">time</text>
</g>
<!-- simple_kb&#45;&gt;time -->
<g id="edge12" class="edge">
<title>simple_kb&#45;&gt;time</title>
<path fill="none" stroke="black" stroke-dasharray="5,2" d="M20.75,-456.15C20.75,-382.79 20.75,-114.5 20.75,-114.5 20.75,-114.5 242.02,-114.5 242.02,-114.5"/>
<polygon fill="black" stroke="black" points="242.02,-118 252.02,-114.5 242.02,-111 242.02,-118"/>
</g>
<!-- testing -->
<g id="node14" class="node">
<title>testing</title>
<polygon fill="lightgray" stroke="black" points="307.88,-60.5 253.88,-60.5 253.88,-24.5 307.88,-24.5 307.88,-60.5"/>
<text xml:space="preserve" text-anchor="middle" x="280.88" y="-37.45" font-family="Times New Roman,serif" font-size="14.00">testing</text>
</g>
<!-- simple_kb&#45;&gt;testing -->
<g id="edge13" class="edge">
<title>simple_kb&#45;&gt;testing</title>
<path fill="none" stroke="black" stroke-dasharray="5,2" d="M10.75,-456.21C10.75,-373.99 10.75,-42.5 10.75,-42.5 10.75,-42.5 241.97,-42.5 241.97,-42.5"/>
<polygon fill="black" stroke="black" points="241.97,-46 251.97,-42.5 241.97,-39 241.97,-46"/>
</g>
</g>
</svg>
